<?xml version="1.0" encoding="UTF-8"?>
<svg id="Layer_2" data-name="Layer 2" xmlns="http://www.w3.org/2000/svg" viewBox="0 0 432 107.48">
  <defs>
    <style>
      .cls-1 {
        fill: #02b26e;
      }
    </style>
  </defs>
  <g id="Layer_1-2" data-name="Layer 1">
    <path class="cls-1" d="M23.12,81.24v-46.97h-7.71v-15.52h15.93v10h4.37c2.36-3.54,5.38-6.28,9.06-8.23,3.68-1.94,8.19-2.92,13.54-2.92,8.54,0,15.15,2.36,19.84,7.08,4.69,4.72,7.03,11.01,7.03,18.85v37.7h-15.52v-34.79c0-4.93-1.3-8.68-3.91-11.25-2.6-2.57-6.48-3.85-11.61-3.85s-8.84,1.29-11.51,3.85c-2.67,2.57-4.01,6.32-4.01,11.25v34.79h-15.52ZM123.11,67.7c-5.49,0-9.74-1.58-12.76-4.74-3.02-3.16-4.53-7.65-4.53-13.49s1.51-10.36,4.53-13.59c3.02-3.23,7.27-4.84,12.76-4.84,4.93,0,8.87,1.39,11.82,4.17,2.95,2.78,4.43,6.53,4.43,11.25v5.62c0,4.79-1.46,8.59-4.37,11.4-2.92,2.81-6.88,4.22-11.87,4.22M122.38,107.48c10.41,0,18.43-2.41,24.06-7.24,5.62-4.83,8.43-11.65,8.43-20.47v-45.52h7.81v-15.52h-15.93v10h-4.37c-2.22-3.61-5.17-6.39-8.85-8.33-3.68-1.94-8.09-2.92-13.23-2.92-9.38,0-16.72,2.88-22.03,8.64-5.31,5.76-7.97,13.51-7.97,23.23,0,6.46,1.18,12.08,3.54,16.87,2.36,4.79,5.73,8.49,10.1,11.09,4.38,2.6,9.48,3.91,15.31,3.91,4.72,0,8.78-.9,12.18-2.71,3.4-1.81,6.01-4.44,7.81-7.92h.52v8.96c0,4.93-1.53,8.73-4.58,11.41-3.06,2.67-7.5,4.01-13.33,4.01-8.68,0-13.89-2.88-15.62-8.64h-16.35c1.04,6.67,4.43,11.85,10.15,15.57,5.73,3.71,13.18,5.57,22.34,5.57M179.14,43.12c.97-4.23,2.92-7.5,5.83-9.79,2.92-2.29,6.63-3.44,11.14-3.44s8.24,1.13,10.99,3.39c2.74,2.26,4.39,5.54,4.95,9.84h-32.91M196.74,82.49c7.98,0,14.6-1.86,19.84-5.57,5.24-3.71,8.59-8.87,10.05-15.47h-15.62c-.97,2.85-2.66,4.98-5.05,6.41-2.39,1.42-5.5,2.13-9.32,2.13-5.14,0-9.25-1.41-12.34-4.22-3.09-2.81-4.95-6.86-5.57-12.13h48.22v-5.42c0-6.32-1.25-11.79-3.75-16.4-2.5-4.62-6.04-8.16-10.62-10.62-4.58-2.46-10.07-3.7-16.46-3.7s-12.22,1.3-17.08,3.91c-4.86,2.6-8.61,6.32-11.25,11.14-2.64,4.83-3.96,10.57-3.96,17.24s1.34,12.45,4.01,17.34c2.67,4.9,6.49,8.68,11.46,11.35,4.96,2.67,10.78,4.01,17.45,4.01M251.32,81.24v-34.79c0-4.93,1.34-8.68,4.01-11.25,2.67-2.57,6.51-3.85,11.51-3.85s9.01,1.29,11.61,3.85c2.6,2.57,3.9,6.32,3.9,11.25v34.79h15.52v-37.7c0-7.84-2.34-14.13-7.03-18.85-4.69-4.72-11.3-7.08-19.84-7.08-5.35,0-9.86.97-13.54,2.92-3.68,1.94-6.7,4.69-9.06,8.23h-4.38v-10h-15.93v15.52h7.71v46.97h15.52ZM343.39,81.24v-12.19h-16.35V30.83h14.89v-12.08h-15.1V0h-15.21v18.75h-11.14v12.08h11.04v37.81c0,4.24,1.13,7.39,3.38,9.48,2.26,2.08,5.43,3.12,9.53,3.12h18.95ZM362.96,81.24V18.75l-15.52,11.14v51.35h15.52ZM413.67,18.75l-15.1,19.68-15-19.68h-17.29l23.23,30.52-24.48,31.97h17.18l16.25-21.35,16.14,21.35h17.39l-24.48-31.97,23.23-30.52h-17.08ZM362.91,4.15h-15.42v14.6h15.42V4.15ZM0,18.75h15.42V4.15H0v14.6Z"/>
  </g>
</svg>